<svg xmlns="http://www.w3.org/2000/svg" xmlns:xlink="http://www.w3.org/1999/xlink" viewBox="0 0 483 128"><defs><style>.cls-1{fill:#a71925;}</style><symbol id="Salvun_Logo" data-name="Salvun Logo" viewBox="0 0 251.92 251.92"><polygon class="cls-1" points="0 0 0 212.63 54.38 118.44 63.09 133.54 0 242.83 0 251.92 87.74 251.92 117.98 199.54 62.77 103.91 102.86 34.47 166.79 145.2 158.08 160.3 102.86 64.66 80.2 103.91 135.42 199.54 105.18 251.92 210.98 251.92 175.19 189.93 144.6 242.91 127.17 242.91 175.19 159.74 228.41 251.92 251.92 251.92 251.92 0 0 0"/></symbol></defs><title>logo_wt</title><g id="Layer_2" data-name="Layer 2"><g id="Added_Text" data-name="Added Text"><use width="251.92" height="251.92" transform="scale(0.51)" xlink:href="#Salvun_Logo"/><path class="cls-1" d="M204.55,60.55l-15.8,5.37c-1.42-4-3.94-7-8.55-7-3.62,0-5.92,1.43-5.92,3.84,0,3.62,4.93,4.28,11,5.26,9,1.43,20.29,3.62,20.29,17.55,0,14.37-12.72,20.51-27.09,20.51-15.68,0-23.36-5.92-25.44-14.26l16.23-6.14c1.21,3.62,3.4,7.46,9.87,7.46,4.83,0,6.8-1.76,6.8-4,0-3.51-4.6-4.39-10.31-5.48-9-1.65-20.73-3.84-20.73-18.21C154.86,52.32,166.6,46,180.31,46,193,46,201.15,51.11,204.55,60.55Z"/><path class="cls-1" d="M261,89.06c0,3.07.55,4.39,3.4,4.39a11.41,11.41,0,0,0,3.4-.66l.44,10.86c-2.2,1.09-8.23,2.41-12.18,2.41-7.13,0-11.95-2.3-13.71-8.12-3.4,4.83-8.33,8.12-16.23,8.12-14.26,0-17.22-9.43-17.22-15.35,0-12.95,9.22-17.88,26.22-19.42l5.92-.33V69.43c0-6.14-.22-9.76-6.25-9.76-4.28,0-5.93,2.08-7,7.24l-16.89-3c1.75-10.86,8.55-18,25.55-18C252.58,46,261,52.21,261,66.58Zm-19.85-7.68h-.77c-8.12.33-10.86,2.2-10.86,6.15,0,2.52,1.1,4.71,4.94,4.71a11.61,11.61,0,0,0,6.69-2.3Z"/><path class="cls-1" d="M294.48,104.74H274V21.94h20.51Z"/><path class="cls-1" d="M317.73,104.74,298.31,47.17h22.16L330,85.77h.55l9.65-38.6h21.17l-19.64,57.57Z"/><path class="cls-1" d="M364.77,47.17h20.51V83c0,5.26,1.65,7.13,5.38,7.13a11.51,11.51,0,0,0,7.56-3.29V47.17h20.51v57.57H401.19l-1.54-6.58c-3.29,4.61-9.21,7.9-17,7.9-11.73,0-17.88-6.25-17.88-19Z"/><path class="cls-1" d="M483,104.74H462.49V68.88c0-5.26-2.19-7.13-5.81-7.13a12,12,0,0,0-8,3.29v39.7H428.16V47.17h18.21l1,5.59A23.54,23.54,0,0,1,464.47,46C477.3,46,483,52.1,483,65.26Z"/></g></g></svg>